<mxfile host="app.diagrams.net" modified="2023-06-07T13:49:08.605Z" agent="Mozilla/5.0 (Windows NT 10.0; Win64; x64) AppleWebKit/537.36 (KHTML, like Gecko) Chrome/114.0.0.0 Safari/537.36" etag="sC7jPmMcFm2OgSdMR9Ze" version="21.3.6" type="device">
  <diagram name="Страница 1" id="nvZFJLLvlt-4MT4S-oFh">
    <mxGraphModel dx="322" dy="164" grid="1" gridSize="10" guides="1" tooltips="1" connect="1" arrows="1" fold="1" page="1" pageScale="1" pageWidth="1654" pageHeight="1169" math="0" shadow="0">
      <root>
        <mxCell id="0" />
        <mxCell id="1" parent="0" />
        <mxCell id="JVLuoLRVGIcqwMVkjjj0-4" value="" style="edgeStyle=orthogonalEdgeStyle;rounded=0;orthogonalLoop=1;jettySize=auto;html=1;fontFamily=Times New Roman;fontSize=14;entryX=0.5;entryY=0;entryDx=0;entryDy=0;" parent="1" source="JVLuoLRVGIcqwMVkjjj0-2" target="Yv-8fYqueQbaN_uO5r6U-2" edge="1">
          <mxGeometry relative="1" as="geometry">
            <mxPoint x="270" y="160" as="targetPoint" />
          </mxGeometry>
        </mxCell>
        <mxCell id="JVLuoLRVGIcqwMVkjjj0-2" value="Начало" style="rounded=1;whiteSpace=wrap;html=1;arcSize=50;fontFamily=Times New Roman;fontSize=14;resizeHeight=0;" parent="1" vertex="1">
          <mxGeometry x="174.29" y="90" width="185" height="40.62" as="geometry" />
        </mxCell>
        <mxCell id="JVLuoLRVGIcqwMVkjjj0-36" value="" style="edgeStyle=orthogonalEdgeStyle;rounded=0;orthogonalLoop=1;jettySize=auto;html=1;fontFamily=Times New Roman;fontSize=14;" parent="1" source="JVLuoLRVGIcqwMVkjjj0-33" target="JVLuoLRVGIcqwMVkjjj0-35" edge="1">
          <mxGeometry relative="1" as="geometry" />
        </mxCell>
        <mxCell id="JVLuoLRVGIcqwMVkjjj0-33" value="Отсортировать по типу цели" style="rounded=1;whiteSpace=wrap;html=1;arcSize=0;fontFamily=Times New Roman;fontSize=14;" parent="1" vertex="1">
          <mxGeometry x="175" y="360" width="185" height="35" as="geometry" />
        </mxCell>
        <mxCell id="Yv-8fYqueQbaN_uO5r6U-22" style="edgeStyle=orthogonalEdgeStyle;rounded=0;orthogonalLoop=1;jettySize=auto;html=1;entryX=0.5;entryY=0;entryDx=0;entryDy=0;fontSize=14;fontFamily=Times New Roman;" parent="1" source="JVLuoLRVGIcqwMVkjjj0-35" target="Yv-8fYqueQbaN_uO5r6U-21" edge="1">
          <mxGeometry relative="1" as="geometry" />
        </mxCell>
        <mxCell id="JVLuoLRVGIcqwMVkjjj0-35" value="i=0" style="whiteSpace=wrap;html=1;rounded=1;arcSize=0;fontFamily=Times New Roman;fontSize=14;" parent="1" vertex="1">
          <mxGeometry x="175" y="470" width="185" height="30" as="geometry" />
        </mxCell>
        <mxCell id="JVLuoLRVGIcqwMVkjjj0-39" value="1" style="ellipse;whiteSpace=wrap;html=1;rounded=1;arcSize=0;fontFamily=Times New Roman;fontSize=14;" parent="1" vertex="1">
          <mxGeometry x="749.5" y="85.31" width="50" height="50" as="geometry" />
        </mxCell>
        <mxCell id="JVLuoLRVGIcqwMVkjjj0-87" value="" style="edgeStyle=orthogonalEdgeStyle;rounded=0;orthogonalLoop=1;jettySize=auto;html=1;fontFamily=Times New Roman;fontSize=14;endArrow=classic;endFill=1;exitX=1;exitY=0.5;exitDx=0;exitDy=0;" parent="1" source="JVLuoLRVGIcqwMVkjjj0-90" edge="1">
          <mxGeometry relative="1" as="geometry">
            <mxPoint x="1331" y="700" as="targetPoint" />
            <Array as="points">
              <mxPoint x="1471" y="230" />
              <mxPoint x="1471" y="700" />
            </Array>
          </mxGeometry>
        </mxCell>
        <mxCell id="Yv-8fYqueQbaN_uO5r6U-17" value="Да" style="edgeLabel;html=1;align=center;verticalAlign=middle;resizable=0;points=[];fontSize=14;fontFamily=Times New Roman;" parent="JVLuoLRVGIcqwMVkjjj0-87" vertex="1" connectable="0">
          <mxGeometry x="-0.2911" y="4" relative="1" as="geometry">
            <mxPoint x="-4" y="90" as="offset" />
          </mxGeometry>
        </mxCell>
        <mxCell id="Yv-8fYqueQbaN_uO5r6U-40" style="edgeStyle=orthogonalEdgeStyle;rounded=0;orthogonalLoop=1;jettySize=auto;html=1;exitX=0.5;exitY=1;exitDx=0;exitDy=0;entryX=0.5;entryY=0;entryDx=0;entryDy=0;fontFamily=Times New Roman;fontSize=14;" parent="1" source="JVLuoLRVGIcqwMVkjjj0-90" target="Yv-8fYqueQbaN_uO5r6U-31" edge="1">
          <mxGeometry relative="1" as="geometry" />
        </mxCell>
        <mxCell id="YWIAWQN1r3vnsO1PnbCr-6" value="&lt;font style=&quot;font-size: 14px;&quot; face=&quot;Times New Roman&quot;&gt;Нет&lt;/font&gt;" style="edgeLabel;html=1;align=center;verticalAlign=middle;resizable=0;points=[];" parent="Yv-8fYqueQbaN_uO5r6U-40" vertex="1" connectable="0">
          <mxGeometry x="-0.2667" y="1" relative="1" as="geometry">
            <mxPoint as="offset" />
          </mxGeometry>
        </mxCell>
        <mxCell id="JVLuoLRVGIcqwMVkjjj0-90" value="Акуальна ли цель" style="rhombus;whiteSpace=wrap;html=1;rounded=1;arcSize=0;fontFamily=Times New Roman;fontSize=14;" parent="1" vertex="1">
          <mxGeometry x="1239" y="190" width="185" height="80" as="geometry" />
        </mxCell>
        <mxCell id="JVLuoLRVGIcqwMVkjjj0-98" value="" style="edgeStyle=orthogonalEdgeStyle;rounded=0;orthogonalLoop=1;jettySize=auto;html=1;exitX=0.5;exitY=1;exitDx=0;exitDy=0;fontFamily=Times New Roman;fontSize=14;" parent="1" source="JVLuoLRVGIcqwMVkjjj0-39" target="JVLuoLRVGIcqwMVkjjj0-97" edge="1">
          <mxGeometry relative="1" as="geometry">
            <mxPoint x="774.5" y="200" as="sourcePoint" />
          </mxGeometry>
        </mxCell>
        <mxCell id="Yv-8fYqueQbaN_uO5r6U-5" style="edgeStyle=orthogonalEdgeStyle;rounded=0;orthogonalLoop=1;jettySize=auto;html=1;exitX=1;exitY=0.5;exitDx=0;exitDy=0;fontSize=14;fontFamily=Times New Roman;endArrow=classic;endFill=1;" parent="1" source="JVLuoLRVGIcqwMVkjjj0-97" edge="1">
          <mxGeometry relative="1" as="geometry">
            <mxPoint x="774" y="730" as="targetPoint" />
            <Array as="points">
              <mxPoint x="920" y="230" />
              <mxPoint x="920" y="730" />
            </Array>
          </mxGeometry>
        </mxCell>
        <mxCell id="Yv-8fYqueQbaN_uO5r6U-6" value="Нет" style="edgeLabel;html=1;align=center;verticalAlign=middle;resizable=0;points=[];fontSize=14;fontFamily=Times New Roman;" parent="Yv-8fYqueQbaN_uO5r6U-5" vertex="1" connectable="0">
          <mxGeometry x="-0.3495" y="1" relative="1" as="geometry">
            <mxPoint as="offset" />
          </mxGeometry>
        </mxCell>
        <mxCell id="Yv-8fYqueQbaN_uO5r6U-7" style="edgeStyle=orthogonalEdgeStyle;rounded=0;orthogonalLoop=1;jettySize=auto;html=1;exitX=0.5;exitY=1;exitDx=0;exitDy=0;entryX=0.5;entryY=0;entryDx=0;entryDy=0;fontSize=14;fontFamily=Times New Roman;" parent="1" source="JVLuoLRVGIcqwMVkjjj0-97" target="Yv-8fYqueQbaN_uO5r6U-1" edge="1">
          <mxGeometry relative="1" as="geometry" />
        </mxCell>
        <mxCell id="Yv-8fYqueQbaN_uO5r6U-20" value="Да" style="edgeLabel;html=1;align=center;verticalAlign=middle;resizable=0;points=[];fontSize=14;fontFamily=Times New Roman;" parent="Yv-8fYqueQbaN_uO5r6U-7" vertex="1" connectable="0">
          <mxGeometry x="-0.3063" y="-2" relative="1" as="geometry">
            <mxPoint x="2" y="5" as="offset" />
          </mxGeometry>
        </mxCell>
        <mxCell id="JVLuoLRVGIcqwMVkjjj0-97" value="Цель должна&lt;br style=&quot;font-size: 14px;&quot;&gt;&amp;nbsp;выполняться&lt;br&gt;&amp;nbsp;ежедневно?" style="rhombus;whiteSpace=wrap;html=1;rounded=0;fontFamily=Times New Roman;fontSize=14;" parent="1" vertex="1">
          <mxGeometry x="682.01" y="190" width="185" height="80" as="geometry" />
        </mxCell>
        <mxCell id="Yv-8fYqueQbaN_uO5r6U-11" style="rounded=0;orthogonalLoop=1;jettySize=auto;html=1;endArrow=classic;endFill=1;fontSize=14;fontFamily=Times New Roman;" parent="1" source="JVLuoLRVGIcqwMVkjjj0-108" edge="1">
          <mxGeometry relative="1" as="geometry">
            <mxPoint x="920" y="552" as="targetPoint" />
          </mxGeometry>
        </mxCell>
        <mxCell id="JVLuoLRVGIcqwMVkjjj0-108" value="Цель выполнена&lt;br style=&quot;font-size: 14px;&quot;&gt;в этот день?" style="rhombus;whiteSpace=wrap;html=1;rounded=0;verticalAlign=middle;fontFamily=Times New Roman;fontSize=14;" parent="1" vertex="1">
          <mxGeometry x="682" y="518.75" width="185" height="66.25" as="geometry" />
        </mxCell>
        <mxCell id="JVLuoLRVGIcqwMVkjjj0-117" value="" style="edgeStyle=orthogonalEdgeStyle;rounded=0;orthogonalLoop=1;jettySize=auto;html=1;exitX=0.5;exitY=1;exitDx=0;exitDy=0;fontFamily=Times New Roman;fontSize=14;entryX=0.5;entryY=0;entryDx=0;entryDy=0;" parent="1" source="JVLuoLRVGIcqwMVkjjj0-108" target="Yv-8fYqueQbaN_uO5r6U-3" edge="1">
          <mxGeometry relative="1" as="geometry">
            <mxPoint x="1099.5" y="522.5" as="sourcePoint" />
            <mxPoint x="774.5" y="630" as="targetPoint" />
          </mxGeometry>
        </mxCell>
        <mxCell id="JVLuoLRVGIcqwMVkjjj0-173" value="Да" style="edgeLabel;html=1;align=center;verticalAlign=middle;resizable=0;points=[];fontFamily=Times New Roman;fontSize=14;" parent="JVLuoLRVGIcqwMVkjjj0-117" vertex="1" connectable="0">
          <mxGeometry x="-0.5826" y="-1" relative="1" as="geometry">
            <mxPoint y="10" as="offset" />
          </mxGeometry>
        </mxCell>
        <mxCell id="JVLuoLRVGIcqwMVkjjj0-163" value="2" style="ellipse;whiteSpace=wrap;html=1;rounded=0;fontFamily=Times New Roman;fontSize=14;aspect=fixed;" parent="1" vertex="1">
          <mxGeometry x="752" y="816.31" width="45" height="45" as="geometry" />
        </mxCell>
        <mxCell id="Yv-8fYqueQbaN_uO5r6U-38" style="edgeStyle=orthogonalEdgeStyle;rounded=0;orthogonalLoop=1;jettySize=auto;html=1;entryX=0.5;entryY=0;entryDx=0;entryDy=0;fontFamily=Times New Roman;fontSize=14;" parent="1" source="JVLuoLRVGIcqwMVkjjj0-167" target="JVLuoLRVGIcqwMVkjjj0-90" edge="1">
          <mxGeometry relative="1" as="geometry" />
        </mxCell>
        <mxCell id="JVLuoLRVGIcqwMVkjjj0-167" value="2" style="ellipse;whiteSpace=wrap;html=1;aspect=fixed;fontFamily=Times New Roman;fontSize=14;" parent="1" vertex="1">
          <mxGeometry x="1306.5" y="85.31" width="50" height="50" as="geometry" />
        </mxCell>
        <mxCell id="JVLuoLRVGIcqwMVkjjj0-180" value="" style="edgeStyle=orthogonalEdgeStyle;rounded=0;orthogonalLoop=1;jettySize=auto;html=1;exitX=0.5;exitY=1;exitDx=0;exitDy=0;fontFamily=Times New Roman;fontSize=14;" parent="1" source="JVLuoLRVGIcqwMVkjjj0-177" target="JVLuoLRVGIcqwMVkjjj0-179" edge="1">
          <mxGeometry relative="1" as="geometry" />
        </mxCell>
        <mxCell id="JVLuoLRVGIcqwMVkjjj0-193" value="Да" style="edgeLabel;html=1;align=center;verticalAlign=middle;resizable=0;points=[];fontFamily=Times New Roman;fontSize=14;" parent="JVLuoLRVGIcqwMVkjjj0-180" vertex="1" connectable="0">
          <mxGeometry x="0.1864" y="-1" relative="1" as="geometry">
            <mxPoint x="1" y="-12" as="offset" />
          </mxGeometry>
        </mxCell>
        <mxCell id="JVLuoLRVGIcqwMVkjjj0-187" value="" style="edgeStyle=orthogonalEdgeStyle;rounded=0;orthogonalLoop=1;jettySize=auto;html=1;exitX=0;exitY=0.5;exitDx=0;exitDy=0;fontFamily=Times New Roman;fontSize=14;" parent="1" source="JVLuoLRVGIcqwMVkjjj0-177" target="JVLuoLRVGIcqwMVkjjj0-186" edge="1">
          <mxGeometry relative="1" as="geometry" />
        </mxCell>
        <mxCell id="JVLuoLRVGIcqwMVkjjj0-194" value="Нет" style="edgeLabel;html=1;align=center;verticalAlign=middle;resizable=0;points=[];fontFamily=Times New Roman;fontSize=14;" parent="JVLuoLRVGIcqwMVkjjj0-187" vertex="1" connectable="0">
          <mxGeometry x="0.0368" y="1" relative="1" as="geometry">
            <mxPoint x="-1" y="74" as="offset" />
          </mxGeometry>
        </mxCell>
        <mxCell id="JVLuoLRVGIcqwMVkjjj0-177" value="Пользователь&amp;nbsp;&lt;br style=&quot;font-size: 14px;&quot;&gt;выполнил цель &lt;br style=&quot;font-size: 14px;&quot;&gt;за период" style="rhombus;whiteSpace=wrap;html=1;rounded=0;fontFamily=Times New Roman;fontSize=14;" parent="1" vertex="1">
          <mxGeometry x="1239" y="440" width="185" height="90" as="geometry" />
        </mxCell>
        <mxCell id="Yv-8fYqueQbaN_uO5r6U-49" style="edgeStyle=orthogonalEdgeStyle;rounded=0;orthogonalLoop=1;jettySize=auto;html=1;entryX=0.5;entryY=0;entryDx=0;entryDy=0;exitX=0.5;exitY=1;exitDx=0;exitDy=0;fontFamily=Times New Roman;fontSize=14;" parent="1" source="JVLuoLRVGIcqwMVkjjj0-179" target="Yv-8fYqueQbaN_uO5r6U-23" edge="1">
          <mxGeometry relative="1" as="geometry">
            <mxPoint x="1330.9968944099378" y="651.5" as="sourcePoint" />
            <mxPoint x="1331" y="821.5" as="targetPoint" />
            <Array as="points" />
          </mxGeometry>
        </mxCell>
        <mxCell id="JVLuoLRVGIcqwMVkjjj0-179" value="Пометить цель как завершенную успешно" style="whiteSpace=wrap;html=1;rounded=0;fontFamily=Times New Roman;fontSize=14;" parent="1" vertex="1">
          <mxGeometry x="1239" y="600" width="185" height="51.5" as="geometry" />
        </mxCell>
        <mxCell id="Yv-8fYqueQbaN_uO5r6U-52" style="edgeStyle=orthogonalEdgeStyle;rounded=0;orthogonalLoop=1;jettySize=auto;html=1;exitX=0.5;exitY=1;exitDx=0;exitDy=0;endArrow=classic;endFill=1;fontFamily=Times New Roman;fontSize=14;" parent="1" source="JVLuoLRVGIcqwMVkjjj0-186" edge="1">
          <mxGeometry relative="1" as="geometry">
            <mxPoint x="1332" y="700" as="targetPoint" />
            <Array as="points">
              <mxPoint x="1112" y="700" />
              <mxPoint x="1332" y="700" />
            </Array>
          </mxGeometry>
        </mxCell>
        <mxCell id="JVLuoLRVGIcqwMVkjjj0-186" value="Пометить цель&amp;nbsp;&lt;br style=&quot;font-size: 14px;&quot;&gt;как проваленную" style="whiteSpace=wrap;html=1;rounded=0;fontFamily=Times New Roman;fontSize=14;" parent="1" vertex="1">
          <mxGeometry x="1020" y="600" width="185" height="51.5" as="geometry" />
        </mxCell>
        <mxCell id="Yv-8fYqueQbaN_uO5r6U-8" style="edgeStyle=orthogonalEdgeStyle;rounded=0;orthogonalLoop=1;jettySize=auto;html=1;entryX=0.5;entryY=0;entryDx=0;entryDy=0;fontSize=14;fontFamily=Times New Roman;" parent="1" source="Yv-8fYqueQbaN_uO5r6U-1" target="JVLuoLRVGIcqwMVkjjj0-108" edge="1">
          <mxGeometry relative="1" as="geometry" />
        </mxCell>
        <mxCell id="Yv-8fYqueQbaN_uO5r6U-1" value="Получить сумму&amp;nbsp;операций&lt;br style=&quot;border-color: var(--border-color); font-size: 14px;&quot;&gt;&lt;span style=&quot;font-size: 14px;&quot;&gt;за день&lt;/span&gt;" style="shape=process;whiteSpace=wrap;html=1;backgroundOutline=1;fontSize=14;fontFamily=Times New Roman;" parent="1" vertex="1">
          <mxGeometry x="682.01" y="370" width="185" height="60" as="geometry" />
        </mxCell>
        <mxCell id="Yv-8fYqueQbaN_uO5r6U-43" style="edgeStyle=orthogonalEdgeStyle;rounded=0;orthogonalLoop=1;jettySize=auto;html=1;fontFamily=Times New Roman;fontSize=14;" parent="1" source="Yv-8fYqueQbaN_uO5r6U-2" target="JVLuoLRVGIcqwMVkjjj0-33" edge="1">
          <mxGeometry relative="1" as="geometry" />
        </mxCell>
        <mxCell id="Yv-8fYqueQbaN_uO5r6U-2" value="Получить список активных целей" style="shape=process;whiteSpace=wrap;html=1;backgroundOutline=1;fontSize=14;fontFamily=Times New Roman;" parent="1" vertex="1">
          <mxGeometry x="175" y="220" width="185" height="46" as="geometry" />
        </mxCell>
        <mxCell id="Yv-8fYqueQbaN_uO5r6U-4" style="edgeStyle=orthogonalEdgeStyle;rounded=0;orthogonalLoop=1;jettySize=auto;html=1;entryX=0.5;entryY=0;entryDx=0;entryDy=0;fontSize=14;fontFamily=Times New Roman;" parent="1" source="Yv-8fYqueQbaN_uO5r6U-3" target="JVLuoLRVGIcqwMVkjjj0-163" edge="1">
          <mxGeometry relative="1" as="geometry" />
        </mxCell>
        <mxCell id="Yv-8fYqueQbaN_uO5r6U-3" value="Создать отметки&lt;br style=&quot;border-color: var(--border-color); font-size: 14px;&quot;&gt;&lt;span style=&quot;font-size: 14px;&quot;&gt;о выполнении&lt;/span&gt;" style="shape=process;whiteSpace=wrap;html=1;backgroundOutline=1;fontSize=14;fontFamily=Times New Roman;" parent="1" vertex="1">
          <mxGeometry x="682" y="650.75" width="185" height="44" as="geometry" />
        </mxCell>
        <mxCell id="Yv-8fYqueQbaN_uO5r6U-13" value="Нет" style="edgeLabel;html=1;align=center;verticalAlign=middle;resizable=0;points=[];fontSize=14;fontFamily=Times New Roman;" parent="1" vertex="1" connectable="0">
          <mxGeometry x="887" y="544.0033333333334" as="geometry">
            <mxPoint x="4" y="8" as="offset" />
          </mxGeometry>
        </mxCell>
        <mxCell id="Yv-8fYqueQbaN_uO5r6U-26" style="edgeStyle=orthogonalEdgeStyle;rounded=0;orthogonalLoop=1;jettySize=auto;html=1;fontSize=14;fontFamily=Times New Roman;entryX=0.5;entryY=0;entryDx=0;entryDy=0;" parent="1" source="Yv-8fYqueQbaN_uO5r6U-21" target="Yv-8fYqueQbaN_uO5r6U-44" edge="1">
          <mxGeometry relative="1" as="geometry">
            <mxPoint x="260" y="780" as="targetPoint" />
          </mxGeometry>
        </mxCell>
        <mxCell id="Yv-8fYqueQbaN_uO5r6U-30" value="Да" style="edgeLabel;html=1;align=center;verticalAlign=middle;resizable=0;points=[];fontSize=14;fontFamily=Times New Roman;" parent="Yv-8fYqueQbaN_uO5r6U-26" vertex="1" connectable="0">
          <mxGeometry x="-0.2308" y="-2" relative="1" as="geometry">
            <mxPoint as="offset" />
          </mxGeometry>
        </mxCell>
        <mxCell id="Yv-8fYqueQbaN_uO5r6U-27" style="edgeStyle=orthogonalEdgeStyle;rounded=0;orthogonalLoop=1;jettySize=auto;html=1;entryX=0.5;entryY=0;entryDx=0;entryDy=0;fontSize=14;fontFamily=Times New Roman;exitX=1;exitY=0.5;exitDx=0;exitDy=0;" parent="1" source="Yv-8fYqueQbaN_uO5r6U-21" target="Yv-8fYqueQbaN_uO5r6U-28" edge="1">
          <mxGeometry relative="1" as="geometry">
            <mxPoint x="420" y="820" as="targetPoint" />
          </mxGeometry>
        </mxCell>
        <mxCell id="Yv-8fYqueQbaN_uO5r6U-29" value="Нет" style="edgeLabel;html=1;align=center;verticalAlign=middle;resizable=0;points=[];fontSize=14;fontFamily=Times New Roman;" parent="Yv-8fYqueQbaN_uO5r6U-27" vertex="1" connectable="0">
          <mxGeometry x="-0.0408" y="3" relative="1" as="geometry">
            <mxPoint y="21" as="offset" />
          </mxGeometry>
        </mxCell>
        <mxCell id="Yv-8fYqueQbaN_uO5r6U-21" value="i &amp;lt; количества &lt;br style=&quot;font-size: 14px;&quot;&gt;целей?" style="rhombus;whiteSpace=wrap;html=1;fontSize=14;fontFamily=Times New Roman;" parent="1" vertex="1">
          <mxGeometry x="175" y="610" width="185" height="70" as="geometry" />
        </mxCell>
        <mxCell id="Yv-8fYqueQbaN_uO5r6U-23" value="3" style="ellipse;whiteSpace=wrap;html=1;aspect=fixed;fontSize=14;fontFamily=Times New Roman;" parent="1" vertex="1">
          <mxGeometry x="1309" y="816.31" width="45" height="45" as="geometry" />
        </mxCell>
        <mxCell id="Yv-8fYqueQbaN_uO5r6U-25" style="edgeStyle=orthogonalEdgeStyle;rounded=0;orthogonalLoop=1;jettySize=auto;html=1;exitX=0.5;exitY=0;exitDx=0;exitDy=0;fontSize=14;fontFamily=Times New Roman;endArrow=classic;endFill=1;movable=1;resizable=1;rotatable=1;deletable=1;editable=1;locked=0;connectable=1;strokeColor=default;" parent="1" source="Yv-8fYqueQbaN_uO5r6U-24" edge="1">
          <mxGeometry relative="1" as="geometry">
            <mxPoint x="267" y="560" as="targetPoint" />
            <Array as="points">
              <mxPoint x="570" y="560" />
              <mxPoint x="260" y="560" />
            </Array>
          </mxGeometry>
        </mxCell>
        <mxCell id="Yv-8fYqueQbaN_uO5r6U-24" value="3" style="ellipse;whiteSpace=wrap;html=1;aspect=fixed;fontSize=14;fontFamily=Times New Roman;" parent="1" vertex="1">
          <mxGeometry x="570" y="816.31" width="45" height="45" as="geometry" />
        </mxCell>
        <mxCell id="Yv-8fYqueQbaN_uO5r6U-28" value="Конец" style="rounded=1;whiteSpace=wrap;html=1;arcSize=50;fontSize=14;fontFamily=Times New Roman;" parent="1" vertex="1">
          <mxGeometry x="360" y="818.5" width="185" height="40.62" as="geometry" />
        </mxCell>
        <mxCell id="Yv-8fYqueQbaN_uO5r6U-41" style="edgeStyle=orthogonalEdgeStyle;rounded=0;orthogonalLoop=1;jettySize=auto;html=1;fontFamily=Times New Roman;fontSize=14;" parent="1" source="Yv-8fYqueQbaN_uO5r6U-31" target="JVLuoLRVGIcqwMVkjjj0-177" edge="1">
          <mxGeometry relative="1" as="geometry" />
        </mxCell>
        <mxCell id="Yv-8fYqueQbaN_uO5r6U-31" value="Найти цель" style="shape=process;whiteSpace=wrap;html=1;backgroundOutline=1;fontFamily=Times New Roman;fontSize=14;" parent="1" vertex="1">
          <mxGeometry x="1239" y="325" width="185" height="40" as="geometry" />
        </mxCell>
        <mxCell id="Yv-8fYqueQbaN_uO5r6U-46" value="" style="edgeStyle=orthogonalEdgeStyle;rounded=0;orthogonalLoop=1;jettySize=auto;html=1;fontFamily=Times New Roman;fontSize=14;" parent="1" source="Yv-8fYqueQbaN_uO5r6U-44" target="Yv-8fYqueQbaN_uO5r6U-45" edge="1">
          <mxGeometry relative="1" as="geometry" />
        </mxCell>
        <mxCell id="Yv-8fYqueQbaN_uO5r6U-44" value="i++" style="rounded=0;whiteSpace=wrap;html=1;fontFamily=Times New Roman;fontSize=14;" parent="1" vertex="1">
          <mxGeometry x="175" y="736" width="185" height="30" as="geometry" />
        </mxCell>
        <mxCell id="Yv-8fYqueQbaN_uO5r6U-45" value="1" style="ellipse;whiteSpace=wrap;html=1;rounded=0;fontFamily=Times New Roman;fontSize=14;" parent="1" vertex="1">
          <mxGeometry x="245" y="816.31" width="45" height="45" as="geometry" />
        </mxCell>
        <mxCell id="Yv-8fYqueQbaN_uO5r6U-53" value="1" style="text;html=1;align=center;verticalAlign=middle;resizable=1;points=[];autosize=1;fillColor=default;rotation=0;imageWidth=14;imageHeight=14;arcSize=5;absoluteArcSize=0;imageAspect=0;fontSize=14;fontFamily=Times New Roman;" parent="1" vertex="1">
          <mxGeometry x="319.62" y="210" width="17.38" height="27" as="geometry" />
        </mxCell>
        <mxCell id="Yv-8fYqueQbaN_uO5r6U-54" value="2" style="text;html=1;align=center;verticalAlign=middle;resizable=1;points=[];autosize=1;fillColor=default;rotation=0;imageWidth=14;imageHeight=14;arcSize=5;absoluteArcSize=0;imageAspect=0;fontSize=14;fontFamily=Times New Roman;" parent="1" vertex="1">
          <mxGeometry x="320.37" y="350" width="16.63" height="20" as="geometry" />
        </mxCell>
        <mxCell id="Yv-8fYqueQbaN_uO5r6U-55" value="3" style="text;html=1;align=center;verticalAlign=middle;resizable=1;points=[];autosize=1;fillColor=default;rotation=0;imageWidth=14;imageHeight=14;arcSize=5;absoluteArcSize=0;imageAspect=0;fontSize=14;fontFamily=Times New Roman;" parent="1" vertex="1">
          <mxGeometry x="319.37" y="456" width="18.24" height="30" as="geometry" />
        </mxCell>
        <mxCell id="Yv-8fYqueQbaN_uO5r6U-56" value="4" style="text;html=1;align=center;verticalAlign=middle;resizable=1;points=[];autosize=1;fillColor=default;rotation=0;imageWidth=14;imageHeight=14;arcSize=5;absoluteArcSize=0;imageAspect=0;fontSize=14;fontFamily=Times New Roman;direction=south;" parent="1" vertex="1">
          <mxGeometry x="317.74" y="620" width="23.5" height="24.25" as="geometry" />
        </mxCell>
        <mxCell id="Yv-8fYqueQbaN_uO5r6U-57" value="5" style="text;html=1;align=center;verticalAlign=middle;resizable=1;points=[];autosize=1;fillColor=default;rotation=0;imageWidth=14;imageHeight=14;arcSize=5;absoluteArcSize=0;imageAspect=0;fontSize=14;fontFamily=Times New Roman;direction=south;" parent="1" vertex="1">
          <mxGeometry x="317.87" y="720" width="21.63" height="30" as="geometry" />
        </mxCell>
        <mxCell id="Yv-8fYqueQbaN_uO5r6U-58" value="6" style="text;html=1;align=center;verticalAlign=middle;resizable=1;points=[];autosize=1;fillColor=default;rotation=0;imageWidth=14;imageHeight=14;arcSize=5;absoluteArcSize=0;imageAspect=0;fontSize=14;fontFamily=Times New Roman;" parent="1" vertex="1">
          <mxGeometry x="814.77" y="193" width="17.34" height="28" as="geometry" />
        </mxCell>
        <mxCell id="Yv-8fYqueQbaN_uO5r6U-59" value="7" style="text;html=1;align=center;verticalAlign=middle;resizable=1;points=[];autosize=1;fillColor=default;rotation=0;imageWidth=14;imageHeight=14;arcSize=5;absoluteArcSize=0;imageAspect=0;fontSize=14;fontFamily=Times New Roman;" parent="1" vertex="1">
          <mxGeometry x="816.0000000000001" y="360" width="21.56" height="30" as="geometry" />
        </mxCell>
        <mxCell id="Yv-8fYqueQbaN_uO5r6U-60" value="8" style="text;html=1;align=center;verticalAlign=middle;resizable=1;points=[];autosize=1;fillColor=default;rotation=0;imageWidth=14;imageHeight=14;arcSize=5;absoluteArcSize=0;imageAspect=0;fontSize=14;fontFamily=Times New Roman;" parent="1" vertex="1">
          <mxGeometry x="816" y="526" width="21.56" height="15" as="geometry" />
        </mxCell>
        <mxCell id="Yv-8fYqueQbaN_uO5r6U-62" value="9" style="text;html=1;align=center;verticalAlign=middle;resizable=1;points=[];autosize=1;fillColor=default;rotation=0;imageWidth=14;imageHeight=14;arcSize=5;absoluteArcSize=0;imageAspect=0;fontSize=14;fontFamily=Times New Roman;" parent="1" vertex="1">
          <mxGeometry x="816" y="637.5" width="21.2" height="25" as="geometry" />
        </mxCell>
        <mxCell id="Yv-8fYqueQbaN_uO5r6U-63" value="10" style="text;html=1;align=center;verticalAlign=middle;resizable=1;points=[];autosize=1;fillColor=default;rotation=0;imageWidth=14;imageHeight=14;arcSize=5;absoluteArcSize=0;imageAspect=0;fontSize=14;fontFamily=Times New Roman;" parent="1" vertex="1">
          <mxGeometry x="1371.5" y="196" width="24.5" height="31" as="geometry" />
        </mxCell>
        <mxCell id="Yv-8fYqueQbaN_uO5r6U-64" value="11" style="text;html=1;align=center;verticalAlign=middle;resizable=1;points=[];autosize=1;fillColor=default;rotation=0;imageWidth=14;imageHeight=14;arcSize=5;absoluteArcSize=0;imageAspect=0;fontSize=14;fontFamily=Times New Roman;" parent="1" vertex="1">
          <mxGeometry x="1369" y="310" width="27" height="30" as="geometry" />
        </mxCell>
        <mxCell id="Yv-8fYqueQbaN_uO5r6U-65" value="12" style="text;html=1;align=center;verticalAlign=middle;resizable=1;points=[];autosize=1;fillColor=default;rotation=0;imageWidth=14;imageHeight=14;arcSize=5;absoluteArcSize=0;imageAspect=0;fontSize=14;fontFamily=Times New Roman;" parent="1" vertex="1">
          <mxGeometry x="1371" y="445.5" width="23" height="33" as="geometry" />
        </mxCell>
        <mxCell id="Yv-8fYqueQbaN_uO5r6U-66" value="13" style="text;html=1;align=center;verticalAlign=middle;resizable=1;points=[];autosize=1;fillColor=default;rotation=0;imageWidth=14;imageHeight=14;arcSize=5;absoluteArcSize=0;imageAspect=0;fontSize=14;fontFamily=Times New Roman;" parent="1" vertex="1">
          <mxGeometry x="1160" y="595" width="30" height="10" as="geometry" />
        </mxCell>
        <mxCell id="Yv-8fYqueQbaN_uO5r6U-67" value="14" style="text;html=1;align=center;verticalAlign=middle;resizable=1;points=[];autosize=1;fillColor=default;rotation=0;imageWidth=14;imageHeight=14;arcSize=5;absoluteArcSize=0;imageAspect=0;fontSize=14;fontFamily=Times New Roman;" parent="1" vertex="1">
          <mxGeometry x="1371.5" y="590" width="24.5" height="20" as="geometry" />
        </mxCell>
      </root>
    </mxGraphModel>
  </diagram>
</mxfile>
